<?xml version="1.0" standalone="no"?>
<!DOCTYPE svg PUBLIC "-//W3C//DTD SVG 20010904//EN"
 "http://www.w3.org/TR/2001/REC-SVG-20010904/DTD/svg10.dtd">
<svg version="1.0" xmlns="http://www.w3.org/2000/svg"
 width="734.000000pt" height="734.000000pt" viewBox="0 0 734.000000 734.000000"
 preserveAspectRatio="xMidYMid meet">
<metadata>
Created by potrace 1.11, written by Peter Selinger 2001-2013
</metadata>
<g transform="translate(0.000000,734.000000) scale(0.100000,-0.100000)"
fill="#000000" stroke="none">
<path d="M2840 5870 l0 -1330 -35 0 c-19 0 -37 -1 -40 -1 -2 -1 -49 -10 -102
-20 -54 -10 -111 -21 -128 -24 -123 -24 -340 -117 -470 -201 -156 -102 -305
-233 -457 -404 l-58 -65 0 313 0 312 -773 0 -774 0 0 -2160 0 -2160 829 0 828
0 0 78 c0 42 2 586 4 1207 1 622 5 1141 9 1155 3 14 10 57 16 96 52 349 282
579 591 590 103 3 158 -5 232 -36 167 -71 283 -232 309 -430 8 -70 12 -434 12
-1378 l0 -1282 829 0 c655 0 828 3 829 13 0 6 2 552 3 1212 1 660 5 1207 8
1215 4 8 9 38 12 65 9 78 15 104 41 185 36 112 81 187 160 266 118 118 260
173 440 169 92 -2 158 -21 240 -70 97 -59 214 -198 224 -268 0 -4 7 -23 15
-42 9 -20 15 -38 16 -40 0 -3 0 -6 1 -7 0 -2 3 -21 5 -43 3 -22 7 -49 9 -60 2
-11 4 -599 4 -1308 l1 -1287 832 2 833 3 -1 1390 c0 1583 -2 1630 -49 1885
-23 122 -73 285 -116 380 -35 77 -64 135 -69 140 -3 3 -27 38 -54 77 -43 65
-150 183 -218 239 -75 63 -281 184 -313 184 -8 0 -15 4 -15 10 0 5 -3 9 -7 8
-5 -1 -53 12 -108 30 -55 17 -119 33 -143 36 -24 3 -46 7 -50 10 -33 19 -505
29 -617 14 -27 -4 -70 -10 -95 -14 -25 -3 -63 -10 -85 -16 -22 -6 -51 -12 -65
-15 -14 -2 -70 -20 -125 -39 -55 -19 -106 -36 -112 -36 -7 -1 -13 -5 -13 -10
0 -4 -9 -8 -19 -8 -11 0 -23 -5 -27 -11 -3 -6 -21 -17 -38 -25 -35 -16 -45
-22 -134 -81 -64 -43 -129 -92 -164 -125 -10 -10 -23 -18 -28 -18 -5 0 -10 -4
-10 -10 0 -5 -16 -20 -35 -33 -19 -13 -32 -27 -28 -30 3 -4 2 -7 -4 -7 -6 0
-33 -23 -62 -51 l-51 -52 0 1622 0 1621 -820 0 -820 0 0 -1330z"/>
</g>
</svg>
